<?xml version="1.0" standalone="no"?>
<!DOCTYPE svg PUBLIC "-//W3C//DTD SVG 1.1//EN" "http://www.w3.org/Graphics/SVG/1.1/DTD/svg11.dtd" >
<svg xmlns="http://www.w3.org/2000/svg" xmlns:xlink="http://www.w3.org/1999/xlink" version="1.1" viewBox="-10 0 266 256">
  <g transform="matrix(1 0 0 -1 0 204)">
   <path fill="currentColor"
d="M145 216q8 -10 6 -12q0 -1 -1 -3v-9q0 -18 -3 -38q27 13 37 22q2 3 9 -2q1 -2 0 -3q0 -1 -2 -1q-3 0 -10 -3l-6 -3q-16 -7 -28 -11q-8 -34 -27 -46q-8 -6 -1 1q26 21 27 78q1 19 -3 29q0 3 2 1zM87 198v-1q3 -3 3 -11q1 -56 -15 -82q-4 -5 -2 0q10 18 13 50
q-18 -11 -16 -17q-1 -3 -2 -4q-1 0 -2 3q-4 6 -2 9q1 2 3 8q0 3 1 0q0 -8 4 -6q2 1 7 4q4 3 7 5v27q0 7 -2 13q-1 2 0 3q1 0 3 -1zM119 174q6 0 8 -3q1 -4 -1 -5q-11 -5 -22 -12q-5 -2 -1 1l3 3q6 4 8 6q5 4 4 7q-2 1 -2 2q1 0 3 1zM121 152q-1 -7 9 1q2 1 3 1q1 -1 0 -2
q-3 -3 -2 -2q-11 -9 -13 -13q-1 -2 -2 -2t-1 2q-3 9 0 9q2 1 4 6q1 3 2 0zM169 135q3 -1 2 -1q17 -5 23 -8q1 -1 1 -3q-1 -1 -2 0q-14 4 -25 11q-4 2 1 1zM104 121q2 -3 5 0q1 3 2 -1q-1 -2 0 -9q0 -2 -1 -3q-1 0 -3 2q-3 2 -6 10q-1 1 0 1q1 1 3 0zM113 90q-1 1 0 1h3
q11 -7 7 -8q0 -2 -1 -4t0 -3q5 1 12 3q11 2 18 4q5 4 10 3q4 -5 11 -5q2 -5 -2 -6q-4 1 -8 3q-3 2 -11 1q-15 -3 -26 -6q1 -3 0 -5q-3 -3 -5 -8q24 -30 51 -48q7 -7 16 -6q33 2 50 -6q5 -1 -1 0q-14 3 -45 0q-14 0 -24 9q-29 25 -49 46q-4 -71 4 -81q0 -2 -1 -3q-1 0 -2 1
q-9 11 -18 26q-5 3 2 2q11 -11 12 -4q0 4 -1 17v42q-22 -22 -52 -45q-7 -4 -1 1q33 25 53 49q-5 4 -9 8q-14 -5 -31 -8q-2 0 -2 2q0 1 3 2q6 1 18 4q10 2 21 6q0 10 -2 16zM115 70q-3 -2 -4 -1q2 -2 4 -3v4zM123 72h-1q-2 -2 -1 -5q1 1 2 5zM47 80q2 0 2 -1q-2 -9 5 -14
q1 -3 0 -3q-5 -4 -7 3q-6 12 0 15zM193 111q5 1 14 -11q1 -3 0 -3q0 -1 -2 0q-10 3 -16 2q-24 -6 -43 -8q-8 -1 0 2q2 0 12 2q19 4 35 9q3 1 3 3q-1 1 -4 2q-65 -4 -121 -18q-3 0 -3 1t3 2q50 14 122 17z" />
  </g>

</svg>
