<?xml version="1.0" standalone="no"?>
<!DOCTYPE svg PUBLIC "-//W3C//DTD SVG 1.1//EN" "http://www.w3.org/Graphics/SVG/1.1/DTD/svg11.dtd" >
<svg xmlns="http://www.w3.org/2000/svg" xmlns:xlink="http://www.w3.org/1999/xlink" version="1.1" viewBox="-10 0 266 256">
   <path fill="currentColor"
d="M101 170q0 11 2 19l1 -1q12 -17 17 -26q-1 -3 -3 -3q-2 2 -7 5q-6 3 -10 6zM78 215q-1 2 0 2l4 -1q40 -16 69 -34q5 -3 1 1q-33 24 -75 43q-13 5 -11 0q0 -6 10 -12q4 -3 2 1zM167 86q9 8 8 41q-1 6 -2 7t-3 -3q-5 -7 -6 -17q-2 -4 2 -5q2 2 2 -6q1 -5 -3 -15q-1 -2 2 -2
zM201 12q1 1 6 5q4 3 9 5q3 4 0 1q3 3 1 4q-5 5 -7 18q-3 34 0 105q3 57 9 77q-1 4 -5 2q-6 -8 -15 -15q-16 -12 -25 -24q-2 -3 2 -1q20 19 31 21h4q1 -1 1 -4q-3 -24 -5 -63q-3 -37 -4 -72q-1 -15 -1 -21q0 -7 1 -13q3 -17 -3 -23q-1 -3 1 -2zM103 97q24 5 43 15q4 3 3 6
q-2 5 -4 3q-12 -6 -23 -8q-3 0 0 -1q3 0 3 -1t-3 -4q-6 -4 -19 -8q-3 -2 0 -2zM97 174q-1 0 -6 5q4 5 5 4t1 -9zM99 135q9 1 7 7q2 -1 9 -3q5 -2 8 -4q1 0 3 1q1 1 -1 2q-1 1 -3 2q-3 1 -5 1q-6 2 -14 7q-3 8 -2 18q2 -1 5 -3l15 -9l6 -2q1 2 4 3t5 2q1 2 -1 3q-3 1 -7 5
q-8 11 -23 28q1 4 -3 4q-4 5 -9 7q-6 4 -1 -1q2 -3 7 -9l-1 -1t-1 -2q-2 -2 -4 -5q-3 -2 -4 -5q-5 6 -4 11q0 3 -2 4q-2 2 -4 -2q-2 -1 -6 -5q-4 -5 -6 -8q-1 -2 1 -2q11 5 14 1q4 -2 12 -8q1 -2 3 -3v-18q-6 3 -21 12q-5 3 -11 6l-2 1q-3 4 -7 1h-1q-3 -1 -1 -3q1 -3 6 -6
q2 -1 1 0q-1 2 0 3q1 0 4 -1q12 -5 29 -15q2 -2 4 -3v-2q3 -7 1 -8q-2 -2 0 -1zM124 117q1 3 -1 3q-10 3 -26 11q-6 3 -13 7q-4 3 -1 -1q1 -2 -1 -1h-8q-2 1 0 -1q25 -7 28 -14q-2 -1 2 -3q1 1 2 0t3 -1h12q3 -1 3 0zM93 79q2 7 3 10q2 4 2 5q-5 3 -8 9q-17 29 -54 60
q-4 1 -1 -2q54 -49 56 -80l-2 2l-2 1q-5 3 -2 -1q7 -7 14 -13q-2 0 -1 0q-7 2 -9 -2q-2 -1 -2 -2l-3 -3q-5 10 -14 17q-7 6 -9 10q-3 4 -5 0q-3 -6 2 -9q1 -1 2 -6q-1 -31 -11 -47q-4 -3 1 -1q2 2 6 5q3 2 4 2q18 -9 22 -17q0 -1 3 -2q2 1 4 1q3 1 5 1q1 1 1 2t-1 1
q-6 2 -10 4q-10 6 -23 12q1 1 0 2q0 14 4 39l2 -2q8 -5 16 -14l-9 -9q-3 -3 2 -2q3 3 11 8t11 6v2q2 1 1 2q8 -10 19 -29l4 -12q0 -2 2 0q1 4 1 7q-3 3 -6 9q-4 7 -11 19q1 8 13 16q3 4 6 -1q18 -16 22 -41q0 -13 -10 -15q-15 0 -30 7q-8 5 -12 1q-2 0 1 -1q22 -9 42 -9
q7 2 11 9q0 1 1 3t7 8q1 7 -4 6q-4 -1 -5 3q-8 20 -18 28q-5 4 -8 9l-2 3q-1 0 -2 -3q-1 0 -1 -1q-12 -13 -12 -20q-5 8 -14 15z" />
</svg>
